<?xml version="1.0" encoding="UTF-8"?>
<svg xmlns="http://www.w3.org/2000/svg" width="832" height="480" viewBox="0 0 832 480" style="max-width: 832px; width: 100%; height: auto;" role="img" aria-label="TorZlink Web UI download queue">
  <defs>
    <radialGradient id="glowLq" cx="12%" cy="0%" r="55%">
      <stop offset="0%" stop-color="#38bdf8" stop-opacity="0.14"/>
      <stop offset="100%" stop-color="#38bdf8" stop-opacity="0"/>
    </radialGradient>
    <radialGradient id="glowRq" cx="100%" cy="0%" r="45%">
      <stop offset="0%" stop-color="#7dd3fc" stop-opacity="0.08"/>
      <stop offset="100%" stop-color="#7dd3fc" stop-opacity="0"/>
    </radialGradient>
    <linearGradient id="btnFillQ" x1="0" y1="0" x2="0" y2="1">
      <stop offset="0%" stop-color="#0f2a3a"/>
      <stop offset="100%" stop-color="#0a1c28"/>
    </linearGradient>
    <linearGradient id="barGrad" x1="0" y1="0" x2="1" y2="0">
      <stop offset="0%" stop-color="#38bdf8"/>
      <stop offset="100%" stop-color="#7dd3fc"/>
    </linearGradient>
  </defs>

  <rect width="832" height="480" rx="14" fill="#0a0810"/>
  <rect width="832" height="480" rx="14" fill="url(#glowLq)"/>
  <rect width="832" height="480" rx="14" fill="url(#glowRq)"/>
  <rect x="0.5" y="0.5" width="831" height="479" rx="14" fill="none" stroke="#2d2b31" stroke-width="1"/>

  <g font-family="ui-monospace, 'IBM Plex Mono', 'Cascadia Code', 'SF Mono', Menlo, Consolas, monospace">
    <text x="416" y="22" text-anchor="middle" font-size="12" fill="#6b6577">torzlink serve &#x00B7; queue</text>

    <text x="28" y="52" font-size="11" letter-spacing="1.2" fill="#6b6577">
      <tspan fill="#38bdf8">&#x258C;</tspan>
      <tspan>  TERMINAL &#x00B7; SERVE &#x00B7; LAN</tspan>
    </text>
    <text x="42" y="72" font-size="11" text-anchor="middle" transform="translate(84,0) scale(-1,1)">&#x1F404;</text>
    <text x="118" y="72" font-size="11" text-anchor="middle">&#x1F984;</text>
    <text x="28" y="96" font-size="28" font-weight="700" fill="#38bdf8" letter-spacing="0.5">TorZlink</text>
    <text x="200" y="92" font-size="13" opacity="0.85">&#x1F404; &#x1F404; &#x1F404;</text>

    <g transform="translate(700, 58)">
      <text x="0" y="12" font-size="11" font-weight="600" letter-spacing="1.5" fill="#6eb5e8">VPN</text>
      <rect x="36" y="0" width="42" height="22" rx="2" fill="#0c1812" stroke="#4a8a62"/>
      <rect x="60" y="4" width="14" height="14" fill="#86d6a2"/>
      <text x="86" y="16" font-size="12" font-weight="700" fill="#86d6a2">ON</text>
    </g>

    <text x="28" y="118" font-size="13" fill="#6eb5e8">
      <tspan fill="#38bdf8" font-weight="700">&#x276F;</tspan>
      <tspan> busca y descarga torrents</tspan>
    </text>

    <rect x="24" y="138" width="420" height="318" fill="#121018" stroke="#2d2b31"/>
    <rect x="24" y="138" width="420" height="34" fill="#1a1622" stroke="#2d2b31"/>
    <text x="40" y="160" font-size="11" letter-spacing="1.5" fill="#e8f2fa">
      <tspan fill="#38bdf8">&#x276F;</tspan>
      <tspan>  SEARCH</tspan>
    </text>
    <rect x="40" y="188" width="300" height="36" fill="#0a0810" stroke="#2d2b31"/>
    <text x="52" y="211" font-size="13" fill="#38bdf8" font-weight="700">&#x276F;</text>
    <text x="70" y="211" font-size="13" fill="#6b6577">pel&#x00ED;cula, serie, juego&#x2026;</text>
    <rect x="350" y="188" width="78" height="36" fill="url(#btnFillQ)" stroke="#38bdf8"/>
    <text x="389" y="211" text-anchor="middle" font-size="12" font-weight="600" fill="#7dd3fc">Buscar</text>

    <text x="40" y="250" font-size="13" fill="#e8f2fa">
      <tspan fill="#38bdf8">&#x276F;</tspan>
      <tspan> Star Wars (1977) [2160p]</tspan>
    </text>
    <text x="54" y="272" font-size="11" fill="#6b6577">YTS &#x00B7; 5.7 GB &#x00B7; </text>
    <text x="178" y="272" font-size="11" fill="#86d6a2">&#x2191;100</text>
    <rect x="320" y="244" width="98" height="32" fill="url(#btnFillQ)" stroke="#38bdf8"/>
    <text x="369" y="264" text-anchor="middle" font-size="12" font-weight="600" fill="#7dd3fc">en cola</text>

    <line x1="40" y1="292" x2="428" y2="292" stroke="#2d2b31"/>
    <text x="40" y="318" font-size="13" fill="#e8f2fa" opacity="0.75">
      <tspan fill="#38bdf8">&#x276F;</tspan>
      <tspan> Empire Strikes Back (1980)</tspan>
    </text>
    <text x="54" y="340" font-size="11" fill="#6b6577">YTS &#x00B7; 4.2 GB &#x00B7; </text>
    <text x="178" y="340" font-size="11" fill="#86d6a2">&#x2191;86</text>
    <rect x="320" y="312" width="98" height="32" fill="url(#btnFillQ)" stroke="#38bdf8"/>
    <text x="369" y="332" text-anchor="middle" font-size="12" font-weight="600" fill="#7dd3fc">Descargar</text>

    <rect x="456" y="138" width="352" height="318" fill="#121018" stroke="#2d2b31"/>
    <rect x="456" y="138" width="352" height="34" fill="#1a1622" stroke="#2d2b31"/>
    <text x="472" y="160" font-size="11" letter-spacing="1.5" fill="#e8f2fa">
      <tspan fill="#38bdf8">&#x2193;</tspan>
      <tspan>  QUEUE</tspan>
    </text>

    <rect x="472" y="188" width="232" height="36" fill="#0a0810" stroke="#2d2b31"/>
    <text x="484" y="211" font-size="13" fill="#38bdf8" font-weight="700">+</text>
    <text x="502" y="211" font-size="12" fill="#6b6577">magnet:?xt=urn:btih:&#x2026;</text>
    <rect x="714" y="188" width="78" height="36" fill="url(#btnFillQ)" stroke="#38bdf8"/>
    <text x="753" y="211" text-anchor="middle" font-size="12" font-weight="600" fill="#7dd3fc">A&#x00F1;adir</text>

    <text x="472" y="252" font-size="13" font-weight="600" fill="#e8f2fa">
      <tspan fill="#38bdf8">&#x2193;</tspan>
      <tspan> Star Wars (1977) [2160p bluray]</tspan>
    </text>
    <rect x="472" y="264" width="72" height="18" fill="none" stroke="#4a8a62"/>
    <text x="508" y="277" text-anchor="middle" font-size="10" letter-spacing="0.6" fill="#86d6a2">DOWNLOADING</text>
    <text x="556" y="277" font-size="12" fill="#6b6577">64%</text>
    <text x="598" y="277" font-size="12" fill="#6b6577">3.6 / 5.7 GB</text>
    <text x="720" y="277" font-size="12" fill="#6eb5e8">7.7 MB/s</text>

    <rect x="472" y="292" width="320" height="4" fill="#1a1622"/>
    <rect x="472" y="292" width="205" height="4" fill="url(#barGrad)">
      <animate attributeName="width" values="205;220;205" dur="2.4s" repeatCount="indefinite"/>
    </rect>
    <text x="472" y="318" font-size="11" fill="#6b6577">&#x2022; 41 peers</text>

    <rect x="472" y="332" width="78" height="30" fill="none" stroke="#2d2b31"/>
    <text x="511" y="351" text-anchor="middle" font-size="12" fill="#6eb5e8">Pausar</text>
    <rect x="560" y="332" width="86" height="30" fill="none" stroke="#6a3a45"/>
    <text x="603" y="351" text-anchor="middle" font-size="12" fill="#ee7d92">Cancelar</text>

    <line x1="472" y1="380" x2="792" y2="380" stroke="#2d2b31"/>
    <text x="472" y="408" font-size="13" font-weight="600" fill="#e8f2fa" opacity="0.85">
      <tspan fill="#86d6a2">&#x2713;</tspan>
      <tspan> Dune: Part Two (2024) [1080p]</tspan>
    </text>
    <rect x="472" y="420" width="72" height="18" fill="none" stroke="#4a8a62"/>
    <text x="508" y="433" text-anchor="middle" font-size="10" letter-spacing="0.6" fill="#86d6a2">COMPLETED</text>
    <text x="556" y="433" font-size="12" fill="#6b6577">100% &#x00B7; 2.4 GB</text>
  </g>
</svg>
