<?xml version="1.0" encoding="UTF-8"?>
<svg xmlns="http://www.w3.org/2000/svg" width="832" height="520" viewBox="0 0 832 520" style="max-width: 832px; width: 100%; height: auto;" role="img" aria-label="TorZlink Web UI search results">
  <defs>
    <radialGradient id="glowL" cx="12%" cy="0%" r="55%">
      <stop offset="0%" stop-color="#38bdf8" stop-opacity="0.14"/>
      <stop offset="100%" stop-color="#38bdf8" stop-opacity="0"/>
    </radialGradient>
    <radialGradient id="glowR" cx="100%" cy="0%" r="45%">
      <stop offset="0%" stop-color="#7dd3fc" stop-opacity="0.08"/>
      <stop offset="100%" stop-color="#7dd3fc" stop-opacity="0"/>
    </radialGradient>
    <linearGradient id="btnFill" x1="0" y1="0" x2="0" y2="1">
      <stop offset="0%" stop-color="#0f2a3a"/>
      <stop offset="100%" stop-color="#0a1c28"/>
    </linearGradient>
  </defs>

  <rect width="832" height="520" rx="14" fill="#0a0810"/>
  <rect width="832" height="520" rx="14" fill="url(#glowL)"/>
  <rect width="832" height="520" rx="14" fill="url(#glowR)"/>
  <rect x="0.5" y="0.5" width="831" height="519" rx="14" fill="none" stroke="#2d2b31" stroke-width="1"/>

  <g font-family="ui-monospace, 'IBM Plex Mono', 'Cascadia Code', 'SF Mono', Menlo, Consolas, monospace">
    <text x="416" y="22" text-anchor="middle" font-size="12" fill="#6b6577">torzlink serve &#x00B7; http://127.0.0.1:8787</text>

    <text x="28" y="52" font-size="11" letter-spacing="1.2" fill="#6b6577">
      <tspan fill="#38bdf8">&#x258C;</tspan>
      <tspan>  TERMINAL &#x00B7; SERVE &#x00B7; LAN</tspan>
    </text>

    <text x="42" y="72" font-size="11" text-anchor="middle" transform="translate(84,0) scale(-1,1)">&#x1F404;</text>
    <text x="118" y="72" font-size="11" text-anchor="middle">&#x1F984;</text>
    <text x="28" y="96" font-size="28" font-weight="700" fill="#38bdf8" letter-spacing="0.5">TorZlink</text>
    <text x="200" y="92" font-size="13" opacity="0.85">&#x1F404; &#x1F404; &#x1F404; &#x1F404;</text>

    <g transform="translate(700, 58)">
      <text x="0" y="12" font-size="11" font-weight="600" letter-spacing="1.5" fill="#6eb5e8">VPN</text>
      <rect x="36" y="0" width="42" height="22" rx="2" fill="#0a0810" stroke="#2d2b31"/>
      <rect x="40" y="4" width="14" height="14" fill="#38bdf8"/>
      <text x="86" y="16" font-size="12" font-weight="700" fill="#6b6577">OFF</text>
    </g>

    <text x="28" y="118" font-size="13" fill="#6eb5e8">
      <tspan fill="#38bdf8" font-weight="700">&#x276F;</tspan>
      <tspan> busca y descarga torrents</tspan>
    </text>

    <rect x="24" y="138" width="784" height="358" fill="#121018" stroke="#2d2b31"/>
    <rect x="24" y="138" width="784" height="34" fill="#1a1622" stroke="#2d2b31"/>
    <text x="40" y="160" font-size="11" letter-spacing="1.5" fill="#e8f2fa">
      <tspan fill="#38bdf8">&#x276F;</tspan>
      <tspan>  SEARCH</tspan>
    </text>

    <rect x="40" y="188" width="640" height="40" fill="#0a0810" stroke="#38bdf8"/>
    <text x="54" y="213" font-size="14" fill="#38bdf8" font-weight="700">&#x276F;</text>
    <text x="74" y="213" font-size="14" fill="#e8f2fa">star wars</text>
    <rect x="690" y="188" width="100" height="40" fill="url(#btnFill)" stroke="#38bdf8"/>
    <text x="740" y="213" text-anchor="middle" font-size="13" font-weight="600" fill="#7dd3fc">Buscar</text>

    <text x="40" y="248" font-size="12" fill="#6b6577">3 resultados</text>

    <rect x="40" y="262" width="752" height="68" fill="#0d1520"/>
    <line x1="40" y1="330" x2="792" y2="330" stroke="#2d2b31"/>
    <text x="54" y="286" font-size="14" font-weight="600" fill="#e8f2fa">
      <tspan fill="#38bdf8">&#x276F;</tspan>
      <tspan> Star Wars (1977) [2160p bluray]</tspan>
    </text>
    <rect x="54" y="298" width="34" height="18" fill="none" stroke="#5a9bb8"/>
    <text x="71" y="311" text-anchor="middle" font-size="10" letter-spacing="0.8" fill="#6eb5e8">YTS</text>
    <text x="100" y="311" font-size="12" fill="#6b6577">5.7 GB</text>
    <text x="168" y="311" font-size="12" fill="#86d6a2">&#x2191;100</text>
    <text x="218" y="311" font-size="12" fill="#6eb5e8">&#x2193;4</text>
    <rect x="678" y="278" width="98" height="36" fill="url(#btnFill)" stroke="#38bdf8"/>
    <text x="727" y="300" text-anchor="middle" font-size="13" font-weight="600" fill="#7dd3fc">Descargar</text>

    <line x1="40" y1="398" x2="792" y2="398" stroke="#2d2b31"/>
    <text x="54" y="354" font-size="14" font-weight="600" fill="#e8f2fa">
      <tspan fill="#38bdf8">&#x276F;</tspan>
      <tspan> Star Wars: Episode V &#x2014; The Empire Strikes Back (1980)</tspan>
    </text>
    <rect x="54" y="366" width="34" height="18" fill="none" stroke="#5a9bb8"/>
    <text x="71" y="379" text-anchor="middle" font-size="10" letter-spacing="0.8" fill="#6eb5e8">YTS</text>
    <text x="100" y="379" font-size="12" fill="#6b6577">4.2 GB</text>
    <text x="168" y="379" font-size="12" fill="#86d6a2">&#x2191;86</text>
    <text x="210" y="379" font-size="12" fill="#6eb5e8">&#x2193;2</text>
    <rect x="678" y="346" width="98" height="36" fill="url(#btnFill)" stroke="#38bdf8"/>
    <text x="727" y="368" text-anchor="middle" font-size="13" font-weight="600" fill="#7dd3fc">Descargar</text>

    <text x="54" y="422" font-size="14" font-weight="600" fill="#e8f2fa">
      <tspan fill="#38bdf8">&#x276F;</tspan>
      <tspan> Star Wars Episode IV A New Hope 1977 1080p</tspan>
    </text>
    <rect x="54" y="434" width="40" height="18" fill="none" stroke="#c4a35a"/>
    <text x="74" y="447" text-anchor="middle" font-size="10" letter-spacing="0.8" fill="#f0c560">1337X</text>
    <text x="106" y="447" font-size="12" fill="#6b6577">2.1 GB</text>
    <text x="174" y="447" font-size="12" fill="#86d6a2">&#x2191;42</text>
    <text x="216" y="447" font-size="12" fill="#6eb5e8">&#x2193;11</text>
    <rect x="678" y="414" width="98" height="36" fill="url(#btnFill)" stroke="#38bdf8"/>
    <text x="727" y="436" text-anchor="middle" font-size="13" font-weight="600" fill="#7dd3fc">Descargar</text>

    <rect x="24" y="138" width="784" height="1" fill="#38bdf8" opacity="0.15"/>
  </g>
</svg>
